<?xml version="1.0" encoding="UTF-8"?>
<!DOCTYPE svg PUBLIC "-//W3C//DTD SVG 1.1//EN" "http://www.w3.org/Graphics/SVG/1.1/DTD/svg11.dtd">
<!-- Creator: CorelDRAW 2019 -->
<svg xmlns="http://www.w3.org/2000/svg" xml:space="preserve" width="820px" height="577px" version="1.1" style="shape-rendering:geometricPrecision; text-rendering:geometricPrecision; image-rendering:optimizeQuality; fill-rule:evenodd; clip-rule:evenodd"
viewBox="0 0 138.41 97.31"
 xmlns:xlink="http://www.w3.org/1999/xlink">
 <defs>
  <style type="text/css">
   <![CDATA[
    .fil7 {fill:#FECB31;fill-rule:nonzero}
    .fil31 {fill:#FBBA1D;fill-rule:nonzero}
    .fil23 {fill:#FAB514;fill-rule:nonzero}
    .fil32 {fill:#F7A70C;fill-rule:nonzero}
    .fil8 {fill:#F49C5F;fill-rule:nonzero}
    .fil34 {fill:#F18917;fill-rule:nonzero}
    .fil14 {fill:#F0854B;fill-rule:nonzero}
    .fil24 {fill:#F08882;fill-rule:nonzero}
    .fil33 {fill:#ED6E1E;fill-rule:nonzero}
    .fil26 {fill:#ED6D68;fill-rule:nonzero}
    .fil35 {fill:#EA5921;fill-rule:nonzero}
    .fil0 {fill:#EEF7F8;fill-rule:nonzero}
    .fil36 {fill:#EADAD8;fill-rule:nonzero}
    .fil19 {fill:#ECE398;fill-rule:nonzero}
    .fil1 {fill:#DCEFF2;fill-rule:nonzero}
    .fil25 {fill:#D8D8D3;fill-rule:nonzero}
    .fil30 {fill:#D8E4AE;fill-rule:nonzero}
    .fil20 {fill:#D7DE94;fill-rule:nonzero}
    .fil47 {fill:#C59A23;fill-rule:nonzero}
    .fil11 {fill:#C8E6E8;fill-rule:nonzero}
    .fil15 {fill:#975635;fill-rule:nonzero}
    .fil46 {fill:#AAC1CD;fill-rule:nonzero}
    .fil28 {fill:#98CED1;fill-rule:nonzero}
    .fil2 {fill:#99C8CE;fill-rule:nonzero}
    .fil3 {fill:#8EC5CA;fill-rule:nonzero}
    .fil4 {fill:#82C1C6;fill-rule:nonzero}
    .fil43 {fill:#749093;fill-rule:nonzero}
    .fil5 {fill:#5FA9B2;fill-rule:nonzero}
    .fil6 {fill:#5CA8B2;fill-rule:nonzero}
    .fil40 {fill:#479EAA;fill-rule:nonzero}
    .fil22 {fill:#262523;fill-rule:nonzero}
    .fil18 {fill:#262624;fill-rule:nonzero}
    .fil44 {fill:#282726;fill-rule:nonzero}
    .fil21 {fill:#292D2A;fill-rule:nonzero}
    .fil42 {fill:#292A2A;fill-rule:nonzero}
    .fil16 {fill:#292B2B;fill-rule:nonzero}
    .fil13 {fill:#2A2D2F;fill-rule:nonzero}
    .fil37 {fill:#292B2D;fill-rule:nonzero}
    .fil39 {fill:#292C2E;fill-rule:nonzero}
    .fil38 {fill:#292C2E;fill-rule:nonzero}
    .fil45 {fill:#292C2F;fill-rule:nonzero}
    .fil17 {fill:#292E31;fill-rule:nonzero}
    .fil9 {fill:#2A2F32;fill-rule:nonzero}
    .fil41 {fill:#2A2E31;fill-rule:nonzero}
    .fil10 {fill:#0C7B88;fill-rule:nonzero}
    .fil12 {fill:#147582;fill-rule:nonzero}
    .fil29 {fill:#136775;fill-rule:nonzero}
    .fil27 {fill:#18626E;fill-rule:nonzero}
   ]]>
  </style>
 </defs>
 <g id="Layer_x0020_1">
  <metadata id="CorelCorpID_0Corel-Layer"/>
  <path class="fil0" d="M118.97 91.75c-0.39,-0.03 -0.8,-0.06 -1.2,-0.08 5.34,-1.6 9.35,-5.49 12.23,-10.44 3.89,-6.68 5.71,-15.28 5.95,-22.78 0.28,-8.47 -1.15,-17.07 -4.75,-24.64 -1.24,-2.62 -2.76,-5.11 -4.52,-7.39 0.52,-0.51 0.99,-1.03 1.4,-1.55 0,0 0,0 0,0 0,0 0,-0.01 0.01,-0.01 0,0 0,-0.01 0.01,-0.01 0.76,-0.99 1.65,-2.68 2.42,-4.29 0.84,1.38 1.61,2.81 2.31,4.28 4.2,8.83 5.86,18.88 5.54,28.76 -0.28,8.76 -2.41,18.81 -6.95,26.61 -3.02,5.19 -7.11,9.39 -12.45,11.54zm-101.87 -0.22c-8.15,-3.35 -14.79,-11.11 -15.55,-20.58 -1.55,-19.25 13.05,-26.23 27.63,-31.99 6.86,-2.71 14.47,-5.34 19.95,-10.72 8.76,-8.59 16.09,-17.21 27.08,-22.54 -1.68,2.53 -2.64,5.03 -2.64,6.62 -0.01,0.7 0.18,1.23 0.58,1.51 0.2,0.13 0.44,0.2 0.71,0.2 0.04,0 0.08,0 0.12,0l-0.01 0.02 0 0c0,0 4.65,1.08 9.42,2.61 -0.04,0.02 -0.08,0.04 -0.12,0.05 -10.29,4.48 -16.84,12.26 -24.75,20.02 -4.69,4.6 -11.21,6.86 -17.09,9.18 -4.26,1.68 -8.52,3.49 -12.23,5.79l-1.59 0 0.22 -3.22 -5.24 0 -0.21 3.22 -4.41 0 -0.57 9.86 -0.29 4.95 0.96 0c-0.16,0.88 -0.28,1.8 -0.34,2.77l-0.62 0 -0.54 9.33 -0.32 5.47 3.93 0 -0.43 6.34 0 0 -0.06 0.92c-1.25,0.06 -2.44,0.12 -3.59,0.19zm8.83 -0.43l0.26 -3.77c1.75,1.48 3.71,2.69 5.79,3.56 -2.09,0.06 -4.11,0.14 -6.05,0.21zm96.84 -69.03c-1.68,-1.58 -3.49,-3 -5.43,-4.2 0,0 0,0 0,0 0.01,0.01 0.01,0.01 0.02,0.01l0 0c0,0 0.01,0 0.01,0 0.01,0.01 0.03,0.01 0.04,0.01 0,0 0,0 0,0l0 0c0,0 0.01,0 0.01,0 0.13,-0.01 0.21,-0.17 0.12,-0.28 0,0 0,-0.01 0,-0.01 -0.01,0 -0.01,-0.01 -0.02,-0.01l-0.37 -0.35c-0.15,-0.14 -0.24,-0.35 -0.24,-0.56 0,-0.05 0,-0.1 0.01,-0.15l0 0c0,-0.01 0,-0.01 0,-0.01 0,0 0,0 0,0 0,0 0,0 0,0 0,0 0,-0.01 0.01,-0.01 0,0 0,0 0,0 0,0 0,0 0,0 0,0 0,0 0,-0.01 0,0 0,0 0,0 0.27,-1.36 0.69,-5.55 -3.95,-7.06 -0.54,-0.18 -1.16,-0.31 -1.83,-0.31 -1.31,0 -2.77,0.5 -4.06,2.1 -0.27,0.34 -0.68,0.52 -1.11,0.52 -0.17,0 -0.34,-0.03 -0.51,-0.09 -0.84,-0.31 -1.97,-0.69 -2.44,-0.69 -0.11,0 -0.18,0.01 -0.21,0.05 -0.3,0.36 0.79,0.89 0.79,0.89 0,0 0.56,0.29 1.48,0.74 -0.39,0.2 -0.68,0.46 -0.82,0.79 -1.26,-0.14 -2.53,-0.2 -3.81,-0.2 -1.76,0 -3.53,0.12 -5.29,0.37 -2.84,-2.88 -7.84,-8.08 -10.1,-11.2 3.88,-1.04 7.89,-1.6 11.86,-1.6 5.63,0 11.21,1.12 16.35,3.57 5.69,2.73 10.63,7 14.53,12.17 -1.33,1.77 -3.26,4.17 -4.68,5.26 -0.12,0.09 -0.24,0.18 -0.36,0.26z"/>
  <path class="fil1" d="M117.77 91.67c-1.07,-0.07 -2.18,-0.14 -3.34,-0.2 -0.15,-1.21 -0.52,-2.51 -0.52,-2.51l-0.77 0 0.77 0c0,0 0.35,-1.35 0.82,-3.27 0.95,-3.85 2.4,-9.98 2.55,-12.03l0 0c0,-0.01 0,-0.01 0,-0.01 0,0 0,0 0,0 0,-0.01 0,-0.01 0,-0.01 0.02,-0.31 0.03,-0.62 0.03,-0.94 0,-2.8 -0.8,-5.8 -1.51,-7.12 0,0 -0.12,-0.61 -0.12,-1.47 0,-0.69 0.08,-1.56 0.37,-2.42 0.44,-1.32 1.37,-6.18 1.37,-10.25 0,-1.2 -0.08,-2.34 -0.28,-3.29 0,-0.06 0.08,-1.22 0.1,-3.66 0.15,0.01 0.29,0.01 0.44,0.01 4.02,0 6.01,-3.67 5.69,-6.84 -0.35,-3.39 -3,-3.88 -2.95,-5.41 0.01,-0.37 0.13,-0.82 0.29,-1.31 1.92,-1.21 4.21,-2.81 5.97,-4.52 1.76,2.28 3.28,4.77 4.52,7.39 3.6,7.57 5.03,16.17 4.75,24.64 -0.24,7.5 -2.06,16.1 -5.95,22.78 -2.88,4.95 -6.89,8.84 -12.23,10.44zm-10.12 -0.53c-5.44,-0.22 -11.59,-0.41 -18.24,-0.54l-0.36 -5.39 0.02 0 -0.05 -1.11 -0.05 0 0 -0.02 2.02 0 -0.33 -5.7 -0.53 -9.1 -2.17 0 -0.11 -1.76 -0.05 -1.01 -0.02 0 2.35 0 -0.37 -8.02 -0.32 -6.79 -2.67 0 -0.22 -3.22 -5.23 0 0.22 3.22 -51.34 0c3.71,-2.3 7.97,-4.11 12.23,-5.79 5.88,-2.32 12.4,-4.58 17.09,-9.18 7.91,-7.76 14.46,-15.54 24.75,-20.02 0.04,-0.01 0.08,-0.03 0.12,-0.05 2.1,0.67 4.22,1.43 5.98,2.22l-3.72 5.65c-0.33,0.51 -0.15,1.19 0.39,1.47l0.19 0.1c0.15,0.08 0.31,0.11 0.47,0.11 0.35,0 0.68,-0.18 0.88,-0.49l3.58 -5.95c0.17,0.1 0.34,0.19 0.49,0.29 0.32,0.2 0.67,0.29 1.03,0.29 0.37,0 0.73,-0.1 1.05,-0.31 0.82,-0.54 1.82,-1.52 2.29,-3.21 0.04,-0.17 0.07,-0.33 0.07,-0.5 0,-0.5 -0.2,-0.99 -0.57,-1.36l0 0c-0.03,-0.03 -0.07,-0.07 -0.11,-0.11l0 0c-0.33,-0.33 -0.75,-0.76 -1.24,-1.25 1.76,-0.25 3.53,-0.37 5.29,-0.37 1.28,0 2.55,0.06 3.81,0.2 -0.12,0.3 -0.12,0.66 0.05,1.1 0.31,0.8 0.79,1.21 1.42,1.42 -0.17,0.49 -0.32,0.88 -0.51,1.09 -0.5,0.52 -0.82,0.68 -0.82,0.68 0,0 0,0.52 0.64,0.88 0,0 -0.46,2.43 0.98,3.5 0.66,0.49 1.41,0.77 2.17,0.85 -0.11,0.43 -0.28,0.98 -0.52,1.52 -0.06,-0.07 -0.09,-0.11 -0.09,-0.11 -0.91,0 -2.38,0.54 -3.09,0.81 -0.17,0.06 -0.33,0.15 -0.47,0.25l-0.01 -0.01 -0.07 0.08c-0.13,0.1 -0.24,0.22 -0.33,0.35l-7.34 7.92c0,0 -4.43,-6.78 -5.37,-9.13l-1.55 0.72c0,0 0.59,12.85 5.96,14.13 0,0 0,0 0,0 0.01,0 0.01,0 0.01,0 0,0.01 0,0.01 0,0.01 0,0 0.01,0 0.01,0 0,0 0,0 0,0 0,0 0,0 0.01,0 0,0 0,0 0,0 0,0 0,0 0,0 0,0 0.01,0 0.01,0 0,0 0,0 0,0 0,0 0,0 0.01,0 0,0 0,0 0,0 0,0 0,0 0,0.01 0.01,0 0.01,0 0.01,0 0,0 0.01,0 0.01,0 0,0 0.12,0.01 0.32,0.01 0.96,0 3.89,-0.2 6.97,-2.39l-0.88 9.73c0.04,0.04 0.1,0.08 0.15,0.12l-0.14 0.12c0,0 -5.18,16.07 -4.34,19.65 0,0.01 0,0.01 0,0.01 0.12,0.52 0.48,1.35 1,2.39 2.84,5.68 10.55,17.62 11.8,19.55l-2.08 2.14c-0.17,0.1 -0.35,0.2 -0.54,0.3zm-75.67 -0.25c-2.08,-0.87 -4.04,-2.08 -5.79,-3.56l0.22 -3.25 57.33 0 0.44 6.43c-5.69,-0.08 -11.68,-0.12 -17.88,-0.12 -12.56,0 -24.3,0.18 -34.32,0.5zm50.75 -21.61l-7.41 0 0 -2.77 7.23 0 0 0 0.07 1.1 0 0 0.11 1.67zm-47.56 0l-7.76 0 0.12 -1.67 0.01 0 0.06 -1.1 0 0 7.57 0 0 2.77zm-12.99 0l-3.45 0c0.06,-0.97 0.18,-1.89 0.34,-2.77l3.3 0 -0.19 2.77zm85.74 -0.87c-0.53,-0.52 -1.09,-1.06 -1.56,-1.51 -0.39,-0.37 -0.59,-0.87 -0.59,-1.37 0,-0.29 0.06,-0.58 0.2,-0.85 0.03,-0.06 0.06,-0.13 0.1,-0.19l1.1 -1.9 0.75 5.82zm10.62 -44.42c-1.23,-0.33 -2.39,-0.32 -2.63,-0.99 -0.22,-0.6 0.07,-1.21 0.41,-1.67 0.68,-0.91 0.97,-2.07 0.69,-3.16 -0.02,-0.14 -0.04,-0.28 -0.06,-0.42 0,0 0,0 0,0 0,0.01 0,0.01 0.01,0.01 0,0 0,0 0.01,0 0,0 0,0 0,0 0.01,0 0.01,0 0.01,0 0,0.01 0.01,0.01 0.01,0.01 0,0 0,0 0.01,0 0,0 0,0 0,0 0.01,0 0.01,0 0.01,0 0,0 0.01,0.01 0.01,0.01 0,0 0.01,0 0.01,0 0,0 0,0 0.01,0 0,0 0,0 0,0 0.01,0 0.01,0 0.01,0.01 0,0 0.01,0 0.01,0 0,0 0,0 0.01,0 0,0 0,0 0,0 0.01,0 0.01,0 0.01,0.01 0,0 0.01,0 0.01,0 0,0 0,0 0.01,0 0,0 0,0 0,0 0.01,0 0.01,0 0.01,0 0.01,0.01 0.01,0.01 0.01,0.01 0,0 0.01,0 0.01,0 0,0 0,0 0,0 0.01,0 0.01,0 0.01,0 0.01,0 0.01,0.01 0.01,0.01 0,0 0.01,0 0.01,0 0,0 0,0 0.01,0 0,0 0,0 0,0 0.01,0 0.01,0 0.01,0.01 0,0 0.01,0 0.01,0 0,0 0,0 0.01,0 0,0 0,0 0,0 0.01,0 0.01,0 0.01,0 0,0.01 0.01,0.01 0.01,0.01 0,0 0,0 0.01,0 0,0 0,0 0,0 0.01,0 0.01,0 0.01,0 0,0 0.01,0.01 0.01,0.01 0,0 0,0 0.01,0 0,0 0,0 0.01,0 0,0 0,0 0,0 0,0 0.01,0 0.01,0.01 0,0 0,0 0.01,0 0,0 0,0 0.01,0 0,0 0,0 0,0 0.01,0 0.01,0 0.01,0.01 0,0 0.01,0 0.01,0 0,0 0,0 0.01,0 0,0 0,0 0,0 0,0 0,0 0.01,0 1.94,1.2 3.75,2.62 5.43,4.2 -1.19,0.83 -2.65,1.51 -4.23,1.92z"/>
  <path class="fil2" d="M66.3 97.31c-36.62,0 -66.3,-1.55 -66.3,-3.46 0,-0.89 6.47,-1.71 17.1,-2.32 1.02,0.42 2.07,0.77 3.13,1.05 -4.58,0.27 -7.25,0.61 -7.25,0.97 0,0.96 19.18,1.74 42.83,1.74 22.32,0 40.65,-0.7 42.65,-1.58 0,0 0,0 0,0 0,0.41 4.79,0.74 10.7,0.74 5.92,0 10.71,-0.33 10.71,-0.74 0,-0.28 -2.2,-0.52 -5.46,-0.65 0,-0.02 0.01,-0.03 0.01,-0.05 1.61,-0.26 3.13,-0.69 4.55,-1.26 8.55,0.58 13.63,1.31 13.63,2.1 0,1.91 -29.68,3.46 -66.3,3.46zm32.33 -3.73c0.01,-0.01 0.01,-0.02 0.01,-0.03 0,-0.09 -0.14,-0.16 -0.4,-0.24l1.92 0c-0.74,0.08 -1.27,0.17 -1.53,0.27z"/>
  <path class="fil3" d="M100.16 93.31l-1.92 0c-1.05,-0.32 -4.14,-0.6 -8.7,-0.84l0 -0.02 15.3 0c-0.04,0.03 -0.08,0.05 -0.12,0.07 -0.54,0.12 -1.02,0.25 -1.21,0.38 -0.07,0.05 -0.13,0.11 -0.16,0.19 -1.28,0.05 -2.36,0.13 -3.19,0.22zm14.26 -0.3c0.05,-0.19 0.07,-0.42 0.07,-0.68 1.14,-0.13 2.23,-0.35 3.28,-0.66 0.4,0.02 0.81,0.05 1.2,0.08 -1.42,0.57 -2.94,1 -4.55,1.26zm-94.19 -0.43c-1.06,-0.28 -2.11,-0.63 -3.13,-1.05 1.15,-0.07 2.34,-0.13 3.59,-0.19l-0.09 1.21c-0.12,0.01 -0.25,0.02 -0.37,0.03zm5.62 -0.28l0.08 -1.2c1.94,-0.07 3.96,-0.15 6.05,-0.21 1.16,0.48 2.35,0.86 3.56,1.12 -3.56,0.08 -6.82,0.18 -9.69,0.29z"/>
  <path class="fil4" d="M104.84 92.45l-15.3 0 -0.13 -1.85c6.65,0.13 12.8,0.32 18.24,0.54 -0.38,0.21 -0.79,0.4 -1.24,0.58 -0.67,0.27 -1.18,0.51 -1.57,0.73zm9.65 -0.12c0,-0.17 -0.01,-0.36 -0.03,-0.55 0,0 0,0 0,0 0,0 0,0 0,0 0,0 0,0 0,-0.01 0,0 0,0 0,0 -0.01,-0.1 -0.02,-0.2 -0.03,-0.3 1.16,0.06 2.27,0.13 3.34,0.2 -1.05,0.31 -2.14,0.53 -3.28,0.66zm-30.2 -0.08c-7.57,-0.28 -17.54,-0.45 -28.48,-0.45 -7.33,0 -14.23,0.08 -20.27,0.21 -1.21,-0.26 -2.4,-0.64 -3.56,-1.12 10.02,-0.32 21.76,-0.5 34.32,-0.5 6.2,0 12.19,0.04 17.88,0.12l0.11 1.74z"/>
  <path class="fil5" d="M109.16 94.45c-5.91,0 -10.7,-0.33 -10.7,-0.74 0,0 0,0 0,0 0.09,-0.05 0.15,-0.09 0.17,-0.13 0.26,-0.1 0.79,-0.19 1.53,-0.27l3.14 0c0.01,0.2 0.17,0.43 0.54,0.59 0.02,0.04 0.04,0.09 0.07,0.13l0 0c0,0 0,0 0,0 0,0 0,0 0,0 0,0 0,0 0,0.01 0,0 0,0 0,0 0.13,0.17 1.08,0.25 2.36,0.25 0,0 0,0 0,0l0 0c0.13,0 0.27,0 0.4,0 2.86,-0.03 6.98,-0.41 7.54,-0.88 0,-0.01 0,-0.01 0,-0.01 0.01,0 0.01,-0.01 0.02,-0.01l0 0c0,0 0,0 0,0 0,0 0,0 0,0 0,0 0,0 0,0 0,-0.01 0,-0.01 0,-0.01l0 0c0.08,-0.07 0.14,-0.18 0.18,-0.32 3.26,0.13 5.46,0.37 5.46,0.65 0,0.41 -4.79,0.74 -10.71,0.74z"/>
  <path class="fil6" d="M103.3 93.31l-3.14 0c0.83,-0.09 1.91,-0.17 3.19,-0.22 -0.03,0.06 -0.05,0.12 -0.05,0.19 0,0.01 0,0.02 0,0.03z"/>
  <path class="fil7" d="M91.24 17.55l-4.59 6.98c-0.33,0.51 -0.15,1.19 0.39,1.47l0.19 0.1c0.48,0.24 1.07,0.08 1.35,-0.38l4.02 -6.68 -1.36 -1.49z"/>
  <path class="fil8" d="M90.57 24.09c0,0 0.16,-0.51 0.29,-1.09 0.16,-0.71 0.25,-1.53 -0.07,-1.67 -0.59,-0.26 -0.7,0.77 -0.74,1.14 -0.03,0.37 -1.22,0.79 -1.35,1.44 -0.17,0.83 0.21,1.25 0.21,1.25l1.66 -1.07z"/>
  <path class="fil8" d="M87.21 21.88c0.37,-1.33 2.06,-2.8 2.82,-1.92 0.76,0.89 -0.71,2.06 -0.97,2.23 -0.26,0.17 -0.89,1.75 -1.44,1.39 -0.55,-0.37 -0.52,-1.28 -0.41,-1.7z"/>
  <path class="fil8" d="M91.12 26.45l-0.26 -3.45 -1.95 2.16c0,0 0.75,0 1.34,1.54 0.11,0.31 0.87,-0.25 0.87,-0.25z"/>
  <path class="fil9" d="M115.51 16.04c0,0 1.05,0.51 1.47,2.02 0.32,1.13 0.04,2.33 -0.66,3.27 -0.34,0.46 -0.63,1.07 -0.41,1.67 0.43,1.2 3.77,0.21 5.25,2.92 1.15,2.1 -0.69,4.81 -0.74,6.33 -0.05,1.53 2.6,2.02 2.95,5.41 0.34,3.39 -1.97,7.37 -6.59,6.78 -4.62,-0.59 -7.27,-7.21 -7.27,-7.21l-1.31 -14.27 1.97 -3.87 5.34 -3.05z"/>
  <path class="fil10" d="M102.06 46.68c0,0 -5.43,16.49 -4.59,20.07 0.84,3.59 12.83,21.92 12.83,21.92l2.48 -1.4 0.91 -5.97c0,0 -3,-9.93 -4.03,-11.11 -0.65,-0.73 -2.21,-2.25 -3.3,-3.29 -0.66,-0.63 -0.78,-1.64 -0.29,-2.41l3.69 -6.38 2.8 -6.74 0.54 -3.73 -9.59 -1.23 -1.45 0.27z"/>
  <path class="fil11" d="M110.27 88.7c-1.25,-1.93 -8.96,-13.87 -11.8,-19.55 3.07,6.13 11.83,19.52 11.83,19.52l0.01 -0.01 -0.04 0.04zm-12.8 -21.94c0,0 0,0 0,-0.01 -0.84,-3.58 4.34,-19.65 4.34,-19.65l0.14 -0.12c0,0 0.01,0 0.01,0 -0.73,2.26 -5.26,16.47 -4.49,19.77 0,0.01 0,0.01 0,0.01z"/>
  <path class="fil12" d="M110.3 88.67c0,0 -8.76,-13.39 -11.83,-19.52 -0.52,-1.04 -0.88,-1.87 -1,-2.39 0,0 0,0 0,-0.01 -0.77,-3.3 3.76,-17.51 4.49,-19.77 0.66,0.44 1.86,0.73 3.3,0.93l0.92 7.04c-1.07,2.55 -2.13,4.89 -2.74,5.81 -1.62,2.43 -2.03,6.66 1.25,8.7 1.27,0.78 2.75,3.01 4.08,5.45l1.76 13.57 -0.09 0.04 -0.13 0.14 -0.01 0.01zm-2.38 -20.26c-0.53,-0.52 -1.09,-1.06 -1.56,-1.51 -0.61,-0.58 -0.76,-1.48 -0.39,-2.22 -0.14,0.27 -0.2,0.56 -0.2,0.85 0,0.5 0.2,1 0.59,1.37 0.47,0.45 1.03,0.99 1.56,1.51l0 0z"/>
  <path class="fil8" d="M106.56 22.45c4.95,-1.29 5.1,-7.69 5.1,-7.69l2.91 1.48 0.27 1.89c-0.4,1.31 -0.98,2.22 -1.94,3.06 -0.74,1.91 -0.49,4.24 -0.49,4.24 0,0 -2.73,0.25 -4.29,0.49l-0.75 -0.84c0.42,-0.72 0.68,-1.53 0.83,-2.12 -0.56,-0.06 -1.12,-0.23 -1.64,-0.51z"/>
  <path class="fil8" d="M109.47 11.55c0,0 -1.71,0.41 -2.65,1.9 -0.94,1.5 -1.11,3.09 -1.59,3.6 -0.5,0.52 -0.82,0.68 -0.82,0.68 0,0 0,0.52 0.64,0.88 0,0 -0.46,2.43 0.98,3.5 1.76,1.31 4.09,1.09 5.88,-0.14 1.78,-1.24 2.6,-2.38 3.11,-4.51 0.51,-2.13 -1.49,-7.02 -5.55,-5.91z"/>
  <path class="fil13" d="M112.37 24.23c0,-0.06 0,-0.12 0.01,-0.18 0,0 0.01,0.01 0.02,0.02 0,0.04 0,0.09 0,0.14 -0.01,0 -0.02,0.01 -0.03,0.02z"/>
  <path class="fil14" d="M109.72 25.44c-1.1,0 -1.8,-0.69 -2.04,-0.96 0.24,-0.54 0.41,-1.09 0.52,-1.52 0.18,0.03 0.37,0.04 0.55,0.04 1.04,0 2.09,-0.33 3,-0.93 -0.03,0.55 0.06,1.11 0.36,1.67 0.07,0.12 0.16,0.22 0.27,0.31 -0.01,0.06 -0.01,0.12 -0.01,0.18 -1.04,0.91 -1.93,1.21 -2.65,1.21z"/>
  <path class="fil14" d="M108.75 23c-0.18,0 -0.37,-0.01 -0.55,-0.04l0 0c-0.56,-0.06 -1.12,-0.23 -1.64,-0.51 3.22,-0.84 4.41,-3.85 4.85,-5.84 0.28,0.09 0.56,0.21 0.84,0.35 -0.11,0.07 -0.18,0.15 -0.2,0.23l0 0 0.09 2.35c0.05,0.01 0.1,0.02 0.15,0.03l0 0.02c0.06,0.04 0.13,0.07 0.19,0.09 -0.31,0.73 -0.67,1.54 -0.73,2.39 -0.91,0.6 -1.96,0.93 -3,0.93z"/>
  <path class="fil9" d="M112.59 12.25c0,0 -9.63,-1.28 -8.27,2.29 1.13,2.98 4.78,0.5 8.35,2.65 4.42,2.66 -0.08,-4.94 -0.08,-4.94z"/>
  <path class="fil9" d="M112.9 12.65c0,0 -3.85,0.86 -0.23,4.54 1.32,1.34 -1.99,3.93 -0.56,6.55 0.55,0.99 2.99,0.99 2.99,0.99 0,0 -1.74,-1.26 -0.59,-2.92 1.15,-1.67 2.22,-3.67 1.44,-6.07 -0.78,-2.4 -3.05,-3.09 -3.05,-3.09z"/>
  <path class="fil15" d="M112.48 19.68c-0.06,-0.02 -0.13,-0.05 -0.19,-0.09l0 -0.02c0.06,0.01 0.12,0.02 0.18,0.02 0.02,0 0.03,0 0.05,0 -0.01,0.03 -0.03,0.06 -0.04,0.09z"/>
  <path class="fil16" d="M112.73 19.72c-0.08,0 -0.17,-0.02 -0.25,-0.04 0.01,-0.03 0.03,-0.06 0.04,-0.09 0.75,-0.04 1.22,-0.85 1.22,-1.61 0,-0.08 -0.01,-0.15 -0.02,-0.23 0.1,0.05 0.19,0.1 0.28,0.15 0.13,0.83 -0.54,1.82 -1.27,1.82z"/>
  <path class="fil17" d="M117.01 18.17c-0.01,-0.04 -0.02,-0.08 -0.03,-0.11 -0.03,-0.12 -0.06,-0.23 -0.1,-0.33 0,0 0,0 0,0 0,0 0,0 0.01,0 0,0.01 0,0.01 0.01,0.01 0,0 0,0 0,0 0.01,0 0.01,0 0.01,0 0,0 0.01,0 0.01,0 0,0.01 0,0.01 0.01,0.01 0,0 0,0 0,0 0.01,0 0.01,0 0.01,0 0.01,0 0.01,0 0.01,0 0.02,0.14 0.04,0.28 0.06,0.42z"/>
  <path class="fil18" d="M116.98 19.13c-0.22,0 -0.55,-0.1 -0.97,-0.27 0.12,-0.43 0.19,-0.88 0.2,-1.35 0.05,0.02 0.1,0.04 0.15,0.05l0 0c0.01,0 0.01,0.01 0.02,0.01 0,0 0,0 0,0 0,0 0.01,0 0.01,0l0 0c0.01,0.01 0.01,0.01 0.02,0.01 0,0 0,0 0,0 0,0 0.01,0 0.01,0 0,0 0,0 0,0 0.01,0.01 0.01,0.01 0.02,0.01 0,0 0,0 0,0 0.01,0 0.01,0 0.02,0.01 0,0 0,0 0,0 0,0 0.01,0 0.01,0l0 0c0.01,0 0.01,0 0.02,0.01l0 0c0,0 0.01,0 0.01,0 0,0 0,0 0.01,0 0,0 0,0 0.01,0.01 0,0 0,0 0,0 0.01,0 0.01,0 0.01,0 0,0 0.01,0 0.01,0 0,0 0.01,0 0.01,0.01 0,0 0,0 0,0 0.01,0 0.01,0 0.02,0 0,0 0,0 0,0 0,0 0.01,0.01 0.01,0.01 0,0 0,0 0,0 0.01,0 0.01,0 0.02,0l0 0c0.01,0.01 0.02,0.01 0.03,0.01 0,0 0,0 0,0 0.01,0 0.01,0.01 0.02,0.01l0 0c0,0 0.01,0 0.01,0 0,0 0,0 0,0 0.05,0.02 0.11,0.04 0.16,0.05 0,0 0,0 0,0 0,0 0.01,0.01 0.01,0.01 0,0 0,0 0,0 0.01,0 0.01,0 0.01,0 0.01,0 0.01,0 0.01,0 0,0 0.01,0 0.01,0.01 0,0 0,0 0,0 0.01,0 0.01,0 0.01,0 0,0 0.01,0 0.01,0 0.04,0.1 0.07,0.21 0.1,0.33 0.01,0.03 0.02,0.07 0.03,0.11 0.07,0.49 0.1,0.94 0.1,0.94 -0.03,0.01 -0.08,0.02 -0.13,0.02z"/>
  <path class="fil18" d="M112.28 16.94c-2.89,-1.67 -5.96,-3.69 -5.96,-3.69 0,0 0,0 0,0 1.42,0.69 3.25,1.56 5.14,2.38 0.2,0.37 0.5,0.79 0.92,1.25 -0.04,0.02 -0.07,0.04 -0.1,0.06z"/>
  <path class="fil18" d="M116.01 18.86c-0.56,-0.22 -1.25,-0.56 -2.01,-0.96 -0.01,-0.02 -0.01,-0.05 -0.01,-0.07 -0.06,-0.25 -0.2,-0.4 -0.38,-0.49 -0.19,-0.41 -0.5,-0.55 -0.8,-0.55 -0.16,0 -0.31,0.03 -0.43,0.09 -0.42,-0.46 -0.72,-0.88 -0.92,-1.25 1.38,0.6 2.78,1.18 4.07,1.64 0,0 0,0 0,0 0,0 0.01,0.01 0.01,0.01 0.01,0 0.01,0 0.01,0 0,0 0.01,0 0.01,0 0,0 0.01,0.01 0.01,0.01 0,0 0,0 0.01,0 0,0 0,0 0,0 0.01,0 0.01,0.01 0.01,0.01 0.01,0 0.01,0 0.01,0 0,0 0.01,0 0.01,0 0,0 0.01,0 0.01,0 0,0.01 0.01,0.01 0.01,0.01 0,0 0,0 0.01,0 0,0 0,0 0,0 0.01,0.01 0.01,0.01 0.01,0.01 0.01,0 0.01,0 0.01,0 0,0 0.01,0 0.01,0 0,0 0.01,0.01 0.01,0.01 0,0 0,0 0.01,0 0,0 0,0 0.01,0 0,0 0,0 0,0.01 0.01,0 0.01,0 0.01,0 0.01,0 0.01,0 0.01,0 0,0 0.01,0 0.01,0 0,0.01 0,0.01 0.01,0.01 0,0 0,0 0,0 0.01,0 0.01,0 0.02,0 0,0 0,0.01 0,0.01 0,0 0.01,0 0.01,0 0,0 0.01,0 0.01,0 0,0 0.01,0 0.01,0.01 0,0 0,0 0,0 0.01,0 0.01,0 0.02,0 0,0 0,0 0,0 0,0 0.01,0.01 0.01,0.01 0,0 0,0 0.01,0 0,0 0,0 0.01,0 0,0 0,0 0,0 0.01,0.01 0.01,0.01 0.02,0.01 0,0 0,0 0,0 0,0 0.01,0 0.01,0.01 0,0 0,0 0.01,0 0,0 0,0 0.01,0 0,0 0,0 0,0 0.01,0 0.01,0.01 0.02,0.01 0,0 0,0 0,0 0.1,0.03 0.2,0.07 0.3,0.1 -0.01,0.47 -0.08,0.92 -0.2,1.35z"/>
  <path class="fil18" d="M114 17.9c-0.09,-0.05 -0.18,-0.1 -0.28,-0.15 -0.02,-0.14 -0.05,-0.27 -0.11,-0.4 0,0 0,0 0,-0.01 0.18,0.09 0.32,0.24 0.38,0.49 0,0.02 0,0.05 0.01,0.07z"/>
  <path class="fil7" d="M103.61 11.91c0,0 8.71,4.49 13.75,5.97 0.17,0.05 0.29,-0.17 0.16,-0.29l-0.37 -0.35c-0.19,-0.18 -0.28,-0.45 -0.23,-0.71 0.27,-1.34 0.73,-5.58 -3.94,-7.09 -1.62,-0.53 -3.94,-0.61 -5.89,1.79 -0.39,0.48 -1.05,0.65 -1.62,0.43 -1.03,-0.38 -2.46,-0.86 -2.65,-0.64 -0.3,0.36 0.79,0.89 0.79,0.89z"/>
  <path class="fil19" d="M117.41 17.89l0 0c0,0 0.01,0 0.01,0 0,0 -0.01,0 -0.01,0zm0 0c-0.01,0 -0.03,0 -0.04,-0.01 0.01,0.01 0.03,0.01 0.04,0.01zm-0.05 -0.01l0 0c-0.01,0 -0.01,0 -0.02,-0.01 0.01,0.01 0.01,0.01 0.02,0.01l0 0z"/>
  <path class="fil20" d="M117.33 17.87c0,0 0,0 0,0 0,0 0,0 0,0zm-0.01 0c0,0 -0.01,0 -0.01,0 0,0 0.01,0 0.01,0zm-0.02 -0.01c0,0 0,0 0,0 0,0 0,0 0,0zm-0.01 0c-0.01,0 -0.01,0 -0.01,0 0,0 0.01,0 0.01,0zm-0.02 -0.01c0,0 0,0 0,0 0,0 0,0 0,0zm-0.01 0c-0.01,0 -0.01,0 -0.01,0 0,0 0,0 0.01,0zm-0.02 -0.01c0,0 0,0 -0.01,0 0.01,0 0.01,0 0.01,0zm-0.01 0c-0.01,0 -0.01,0 -0.01,0 0,0 0,0 0.01,0zm-0.02 -0.01c0,0 0,0 -0.01,0 0.01,0 0.01,0 0.01,0zm-0.01 0c-0.01,0 -0.01,0 -0.01,0 0,0 0,0 0.01,0zm-0.02 0c0,-0.01 0,-0.01 -0.01,-0.01 0.01,0 0.01,0 0.01,0.01zm-0.01 -0.01c-0.01,0 -0.01,0 -0.01,0 0,0 0,0 0.01,0zm-0.02 0c0,0 0,-0.01 -0.01,-0.01 0.01,0 0.01,0.01 0.01,0.01zm-0.02 -0.01c0,0 0,0 0,0 0,0 0,0 0,0zm-0.01 0c0,0 0,0 -0.01,-0.01 0.01,0.01 0.01,0.01 0.01,0.01zm-0.02 -0.01c0,0 0,0 0,0 0,0 0,0 0,0zm-0.01 0c0,0 -0.01,0 -0.01,0 0,0 0.01,0 0.01,0zm-0.02 -0.01c0,0 0,0 0,0 0,0 0,0 0,0zm-0.01 0c0,0 -0.01,0 -0.01,0 0,0 0.01,0 0.01,0zm-0.02 -0.01c0,0 0,0 0,0 0,0 0,0 0,0zm-0.01 0c0,0 -0.01,0 -0.01,0 0,0 0.01,0 0.01,0zm-0.02 -0.01c0,0 0,0 -0.01,0 0.01,0 0.01,0 0.01,0zm-0.01 0c-0.01,0 -0.01,0 -0.01,0 0,0 0,0 0.01,0zm-0.02 -0.01c0,0 0,0 -0.01,0 0.01,0 0.01,0 0.01,0zm-0.01 0c-0.01,0 -0.01,0 -0.01,0 0,0 0,0 0.01,0zm-0.02 -0.01c0,0 0,0 0,0l0 0c0,0 0,0 0,0z"/>
  <path class="fil21" d="M116.95 17.75c0,0 0,0 -0.01,0 0,0 0.01,0 0.01,0l0 0zm-0.02 0c0,0 0,0 0,0 0,0 0,0 0,0zm-0.01 -0.01c0,0 -0.01,0 -0.01,0 0,0 0.01,0 0.01,0zm-0.02 0c0,0 0,0 0,0 0,0 0,0 0,0zm-0.01 -0.01c-0.01,0 -0.01,0 -0.01,0 0,0 0,0 0.01,0z"/>
  <path class="fil22" d="M116.87 17.73c0,0 0,0 -0.01,0 0.01,0 0.01,0 0.01,0zm-0.01 0c0,-0.01 -0.01,-0.01 -0.01,-0.01 0,0 0.01,0 0.01,0.01zm-0.02 -0.01c0,0 0,0 -0.01,0 0.01,0 0.01,0 0.01,0zm-0.01 0c0,0 -0.01,-0.01 -0.01,-0.01 0,0 0.01,0.01 0.01,0.01zm-0.01 -0.01c-0.05,-0.01 -0.11,-0.03 -0.16,-0.05 0.05,0.02 0.1,0.04 0.16,0.05zm-0.16 -0.05c0,0 -0.01,0 -0.01,0 0,0 0.01,0 0.01,0zm-0.01 0c-0.01,0 -0.01,-0.01 -0.02,-0.01 0.01,0 0.01,0.01 0.02,0.01zm-0.02 -0.01c-0.01,0 -0.02,0 -0.03,-0.01 0.01,0.01 0.02,0.01 0.03,0.01zm-0.03 -0.01c-0.01,0 -0.01,0 -0.02,0 0.01,0 0.01,0 0.02,0zm-0.02 0c0,0 -0.01,-0.01 -0.01,-0.01 0,0 0.01,0.01 0.01,0.01zm-0.01 -0.01c-0.01,0 -0.01,0 -0.02,0 0.01,0 0.01,0 0.02,0zm-0.02 0c0,-0.01 -0.01,-0.01 -0.01,-0.01 0,0 0.01,0 0.01,0.01zm-0.02 -0.01c0,0 0,0 -0.01,0 0.01,0 0.01,0 0.01,0zm-0.01 0c-0.01,-0.01 -0.01,-0.01 -0.01,-0.01 0,0 0,0 0.01,0.01zm-0.02 -0.01c0,0 -0.01,0 -0.01,0 0,0 0.01,0 0.01,0z"/>
  <path class="fil22" d="M116.49 17.61c-0.01,-0.01 -0.01,-0.01 -0.02,-0.01 0.01,0 0.01,0 0.02,0.01zm-0.02 -0.01c0,0 -0.01,0 -0.01,0 0,0 0.01,0 0.01,0zm-0.01 0c-0.01,-0.01 -0.01,-0.01 -0.02,-0.01 0.01,0 0.01,0 0.02,0.01zm-0.02 -0.01c-0.01,0 -0.01,0 -0.02,-0.01 0.01,0.01 0.01,0.01 0.02,0.01zm-0.02 -0.01c0,0 -0.01,0 -0.01,0 0,0 0.01,0 0.01,0zm-0.01 0c-0.01,0 -0.01,0 -0.02,-0.01 0.01,0.01 0.01,0.01 0.02,0.01zm-0.02 -0.01c0,0 -0.01,0 -0.01,0 0,0 0.01,0 0.01,0zm-0.01 0c-0.01,0 -0.01,-0.01 -0.02,-0.01 0.01,0 0.01,0.01 0.02,0.01zm-0.02 -0.01c-0.05,-0.01 -0.1,-0.03 -0.15,-0.05l0 0c0.05,0.02 0.1,0.04 0.15,0.05z"/>
  <path class="fil22" d="M116.21 17.51c-0.1,-0.03 -0.2,-0.07 -0.3,-0.1 0.1,0.03 0.2,0.07 0.3,0.1l0 0zm-0.3 -0.1c-0.01,0 -0.01,-0.01 -0.02,-0.01 0.01,0 0.01,0.01 0.02,0.01zm-0.02 -0.01c-0.01,0 -0.01,0 -0.01,0 0,0 0,0 0.01,0zm-0.02 0c0,-0.01 -0.01,-0.01 -0.01,-0.01 0,0 0.01,0 0.01,0.01zm-0.01 -0.01c-0.01,0 -0.01,0 -0.02,-0.01 0.01,0.01 0.01,0.01 0.02,0.01zm-0.02 -0.01c-0.01,0 -0.01,0 -0.01,0 0,0 0,0 0.01,0zm-0.02 0c0,0 -0.01,-0.01 -0.01,-0.01 0,0 0.01,0.01 0.01,0.01zm-0.01 -0.01c-0.01,0 -0.01,0 -0.02,0 0.01,0 0.01,0 0.02,0zm-0.02 0c0,-0.01 -0.01,-0.01 -0.01,-0.01 0,0 0.01,0 0.01,0.01zm-0.02 -0.01c0,0 -0.01,0 -0.01,0 0,0 0.01,0 0.01,0zm-0.01 -0.01c-0.01,0 -0.01,0 -0.02,0 0.01,0 0.01,0 0.02,0zm-0.02 0c-0.01,0 -0.01,0 -0.01,-0.01 0,0.01 0,0.01 0.01,0.01zm-0.02 -0.01c0,0 0,0 -0.01,0 0.01,0 0.01,0 0.01,0zm-0.02 0c0,-0.01 0,-0.01 0,-0.01 0,0 0,0 0,0.01zm-0.01 -0.01c-0.01,0 -0.01,0 -0.01,0 0,0 0,0 0.01,0zm-0.02 -0.01c0,0 -0.01,0 -0.01,0 0,0 0.01,0 0.01,0zm-0.02 0c0,0 0,0 -0.01,-0.01 0.01,0.01 0.01,0.01 0.01,0.01zm-0.01 -0.01c-0.01,0 -0.01,0 -0.01,0 0,0 0,0 0.01,0zm-0.02 -0.01c0,0 -0.01,0 -0.01,0 0,0 0.01,0 0.01,0zm-0.02 0c0,0 0,0 -0.01,0 0.01,0 0.01,0 0.01,0zm-0.02 -0.01c0,0 0,0 0,0 0,0 0,0 0,0zm-0.01 0c0,0 -0.01,-0.01 -0.01,-0.01 0,0.01 0.01,0.01 0.01,0.01zm-0.02 -0.01c0,0 0,0 -0.01,0 0.01,0 0.01,0 0.01,0zm-0.02 -0.01c0,0 0,0 0,0 0,0 0,0 0,0z"/>
  <path class="fil19" d="M116.92 16.52c0,0 0,0 0,0 0,0 0,0 0,0zm0 0c0,0 0,-0.01 0.01,-0.01 -0.01,0 -0.01,0.01 -0.01,0.01zm0.01 -0.01c0,0 0,0 0,0 0,0 0,0 0,0zm0 -0.01c0,0 0,0 0,0 0,0 0,0 0,0z"/>
  <path class="fil23" d="M117.41 17.89c0,0 0,0 0,0 -0.01,0 -0.03,0 -0.04,-0.01 0,0 -0.01,0 -0.01,0l0 0c-0.01,0 -0.01,0 -0.02,-0.01 0,0 -0.01,0 -0.01,0 0,0 0,0 0,0 -0.01,0 -0.01,0 -0.01,0 0,0 -0.01,0 -0.01,0 0,-0.01 0,-0.01 -0.01,-0.01 0,0 0,0 0,0 -0.01,0 -0.01,0 -0.01,0 0,0 -0.01,0 -0.01,0 0,-0.01 -0.01,-0.01 -0.01,-0.01 0,0 0,0 0,0 -0.01,0 -0.01,0 -0.01,0 -0.01,0 -0.01,0 -0.01,0 0,0 -0.01,-0.01 -0.01,-0.01 0,0 0,0 -0.01,0 0,0 0,0 0,0 -0.01,0 -0.01,0 -0.01,0 0,0 -0.01,0 -0.01,-0.01 0,0 0,0 -0.01,0 0,0 0,0 0,0 -0.01,0 -0.01,0 -0.01,0 0,0 -0.01,0 -0.01,0 0,-0.01 0,-0.01 -0.01,-0.01 0,0 0,0 0,0 -0.01,0 -0.01,0 -0.01,0 0,0 -0.01,0 -0.01,0 0,0 0,-0.01 -0.01,-0.01 0,0 0,0 -0.01,0 0,0 0,0 0,0 0,0 -0.01,0 -0.01,0 0,0 0,0 -0.01,-0.01 0,0 0,0 -0.01,0 0,0 0,0 0,0 -0.01,0 -0.01,0 -0.01,0 0,0 -0.01,0 -0.01,0 0,-0.01 0,-0.01 -0.01,-0.01 0,0 0,0 0,0 -0.01,0 -0.01,0 -0.01,0 0,0 -0.01,0 -0.01,0 0,-0.01 0,-0.01 -0.01,-0.01 0,0 0,0 0,0 -0.01,0 -0.01,0 -0.01,0 0,0 -0.01,0 -0.01,0 0,0 0,-0.01 -0.01,-0.01 0,0 0,0 -0.01,0 0,0 0,0 0,0 -0.01,0 -0.01,0 -0.01,0 0,0 -0.01,0 -0.01,-0.01 0,0 0,0 -0.01,0 0,0 0,0 0,0 -0.01,0 -0.01,0 -0.01,0 0,0 -0.01,0 -0.01,-0.01 0,0 0,0 0,0 0,0 -0.01,0 -0.01,0 0,0 0,0 -0.01,0 0,0 0,0 0,0 -0.01,0 -0.01,0 -0.01,-0.01 0,0 -0.01,0 -0.01,0 0,0 0,0 -0.01,0 0,0 0,0 0,0 -0.01,0 -0.01,0 -0.01,-0.01 -0.01,0 -0.01,0 -0.01,0 0,0 0,0 -0.01,0 0,0 0,0 -0.01,0 0,0 0,0 0,0 0,-0.01 -0.01,-0.01 -0.01,-0.01 0,0 0,0 -0.01,0 0,0 0,0 -0.01,0 0,0 0,0 0,0 0,0 -0.01,-0.01 -0.01,-0.01 0,0 0,0 0,0 -0.06,-0.01 -0.11,-0.03 -0.16,-0.05 0,0 0,0 0,0 0,0 -0.01,0 -0.01,0 0,0 0,0 0,0 -0.01,0 -0.01,-0.01 -0.02,-0.01 0,0 0,0 0,0 -0.01,0 -0.02,0 -0.03,-0.01 0,0 0,0 0,0 -0.01,0 -0.01,0 -0.02,0 0,0 0,0 0,0 0,0 -0.01,-0.01 -0.01,-0.01 0,0 0,0 0,0 -0.01,0 -0.01,0 -0.02,0 0,0 0,0 0,0 0,-0.01 -0.01,-0.01 -0.01,-0.01 0,0 0,0 -0.01,0 0,0 0,0 -0.01,0 0,0 0,0 0,0 -0.01,-0.01 -0.01,-0.01 -0.01,-0.01 -0.01,0 -0.01,0 -0.01,0 0,0 -0.01,0 -0.01,0l0 0c-0.01,-0.01 -0.01,-0.01 -0.02,-0.01 0,0 0,0 0,0 0,0 -0.01,0 -0.01,0 0,0 0,0 0,0 -0.01,-0.01 -0.01,-0.01 -0.02,-0.01 0,0 0,0 0,0 -0.01,0 -0.01,0 -0.02,-0.01 0,0 0,0 0,0 0,0 -0.01,0 -0.01,0 0,0 0,0 0,0 -0.01,0 -0.01,0 -0.02,-0.01l0 0c0,0 -0.01,0 -0.01,0 0,0 0,0 0,0 -0.01,0 -0.01,-0.01 -0.02,-0.01l0 0c-0.05,-0.01 -0.1,-0.03 -0.15,-0.05 -0.1,-0.03 -0.2,-0.07 -0.3,-0.1 0,0 0,0 0,0 -0.01,0 -0.01,-0.01 -0.02,-0.01 0,0 0,0 0,0 -0.01,0 -0.01,0 -0.01,0 -0.01,0 -0.01,0 -0.01,0 0,-0.01 -0.01,-0.01 -0.01,-0.01 0,0 0,0 0,0 -0.01,0 -0.01,0 -0.02,-0.01 0,0 0,0 0,0 -0.01,0 -0.01,0 -0.01,0 -0.01,0 -0.01,0 -0.01,0 0,0 -0.01,-0.01 -0.01,-0.01 0,0 0,0 0,0 -0.01,0 -0.01,0 -0.02,0 0,0 0,0 0,0 0,-0.01 -0.01,-0.01 -0.01,-0.01 0,0 -0.01,0 -0.01,0 0,0 -0.01,0 -0.01,0 0,0 0,-0.01 0,-0.01 -0.01,0 -0.01,0 -0.02,0 0,0 0,0 0,0 -0.01,0 -0.01,0 -0.01,-0.01 0,0 -0.01,0 -0.01,0 0,0 0,0 -0.01,0 0,0 0,0 -0.01,0 0,-0.01 0,-0.01 0,-0.01 -0.01,0 -0.01,0 -0.01,0 -0.01,0 -0.01,0 -0.01,0 0,0 -0.01,-0.01 -0.01,-0.01 0,0 -0.01,0 -0.01,0 0,0 0,0 -0.01,0 0,0 0,0 -0.01,-0.01 0,0 0,0 0,0 -0.01,0 -0.01,0 -0.01,0 0,0 -0.01,0 -0.01,-0.01 0,0 -0.01,0 -0.01,0 0,0 -0.01,0 -0.01,0 0,0 0,0 -0.01,0 0,0 0,-0.01 -0.01,-0.01 0,0 0,0 0,0 -0.01,0 -0.01,0 -0.01,0 0,0 -0.01,0 -0.01,-0.01 0,0 -0.01,0 -0.01,0 0,0 0,0 -0.01,0 0,0 -0.01,-0.01 -0.01,-0.01 0,0 0,0 0,0 -2.28,-0.82 -4.93,-1.99 -7.14,-3.03 0.68,0.13 1.59,0.26 2.83,0.38 0.18,0.02 0.36,0.03 0.54,0.03 2.54,0 3.59,-1.93 4.02,-3.46 1.62,1.86 1.34,4.33 1.15,5.31 0,0 0,0 0,0 0,0.01 0,0.01 0,0.01 0,0 0,0 0,0 0,0 0,0 0,0 -0.01,0 -0.01,0.01 -0.01,0.01 0,0 0,0 0,0 0,0 0,0 0,0 0,0 0,0 0,0.01l0 0c-0.01,0.05 -0.01,0.1 -0.01,0.15 0,0.21 0.09,0.42 0.24,0.56l0.37 0.35c0.01,0 0.01,0.01 0.02,0.01 0,0 0,0.01 0,0.01 0.09,0.11 0.01,0.27 -0.12,0.28 0,0 -0.01,0 -0.01,0z"/>
  <path class="fil8" d="M112.05 17.19c0.08,-0.34 1.14,-0.78 1.56,0.16 0.43,0.95 -0.25,2.53 -1.47,2.19l-0.09 -2.35z"/>
  <path class="fil24" d="M105.22 26.77l-1.2 -1.35 -7.74 8.35c0,0 -4.43,-6.78 -5.37,-9.13l-1.55 0.72c0,0 0.59,12.96 6.03,14.15 0,0 4.17,0.35 8.27,-3.14 4.09,-3.49 1.56,-9.6 1.56,-9.6z"/>
  <path class="fil9" d="M112.47 87.48l-2.03 1.04 -3.53 3.64c0,0 -2.88,0.37 -3.4,0.74 -0.51,0.37 -0.2,1.3 2,1.22 2.21,-0.08 6.41,-0.27 6.41,-0.27l1.77 -3.68 -1.22 -2.69z"/>
  <path class="fil18" d="M103.84 93.9c-0.38,-0.17 -0.54,-0.4 -0.54,-0.62 0,-0.15 0.08,-0.28 0.21,-0.38 0.19,-0.13 0.67,-0.26 1.21,-0.38 -0.9,0.55 -1.04,0.99 -0.88,1.38zm4.35 -3.06l2.25 -2.32 0.09 -0.04 0.06 0.48 2.54 0 -2.54 0c0,0 -0.87,0.96 -2.4,1.88z"/>
  <path class="fil25" d="M95.71 39.52c-0.2,0 -0.32,-0.01 -0.32,-0.01 0,0 -0.01,0 -0.01,0 0,0 0.01,0 0.01,0 0,0 0.12,0.01 0.32,0.01 0.96,0 3.89,-0.2 6.97,-2.39l0 0c-3.08,2.19 -6.01,2.39 -6.97,2.39zm-0.34 -0.01c0,-0.01 0,-0.01 0,-0.01 0,0 0,0 0,0.01zm0 -0.01c-0.01,0 -0.01,0 -0.01,0 0,0 0,0 0.01,0zm-0.01 0c0,0 -0.01,0 -0.01,0 0,0 0.01,0 0.01,0zm-0.01 0c0,0 0,0 0,0 0,0 0,0 0,0zm-0.01 0c0,0 0,0 0,0 0,0 0,0 0,0zm-0.01 0c0,0 0,0 0,-0.01 0,0.01 0,0.01 0,0.01zm-0.01 -0.01c0,0 0,0 0,0 0,0 0,0 0,0z"/>
  <path class="fil26" d="M95.71 39.52c-0.2,0 -0.32,-0.01 -0.32,-0.01 0,0 -0.01,0 -0.01,0 0,0 0,0 -0.01,0 0,-0.01 0,-0.01 0,-0.01 0,0 0,0 0,0 -0.01,0 -0.01,0 -0.01,0 0,0 0,0 0,0 0,0 -0.01,0 -0.01,0 0,0 0,0 0,0 0,0 0,0 0,0 -0.01,0 -0.01,0 -0.01,0 0,0 0,0 0,0 0,0 -0.01,0 -0.01,0 0,0 0,0 0,-0.01 0,0 0,0 -0.01,0 0,0 0,0 0,0 -0.7,-0.16 -1.31,-0.53 -1.86,-1.03 0.41,0.31 0.87,0.46 1.42,0.46 0.5,0 1.08,-0.13 1.75,-0.37 3.92,-1.42 5.88,-5.58 6.6,-7.51l-0.55 6.09c-3.08,2.19 -6.01,2.39 -6.97,2.39z"/>
  <path class="fil27" d="M108.77 74.91c-1.33,-2.44 -2.81,-4.67 -4.08,-5.45 -3.28,-2.04 -2.87,-6.27 -1.25,-8.7 0.61,-0.92 1.67,-3.26 2.74,-5.81l0.99 7.64 -1.1 1.9c-0.04,0.06 -0.07,0.13 -0.1,0.19 -0.37,0.74 -0.22,1.64 0.39,2.22 0.47,0.45 1.03,0.99 1.56,1.51l0.85 6.5z"/>
  <path class="fil10" d="M105.22 47.56l5.37 41.4 3.32 0c0,0 3.15,-12.28 3.37,-15.32 0.22,-3.04 -0.69,-6.59 -1.48,-8.06 0,0 -0.39,-1.97 0.25,-3.89 0.64,-1.91 2.31,-11.22 0.68,-14.83 -1.62,-3.6 -11.51,0.7 -11.51,0.7z"/>
  <path class="fil28" d="M114.73 85.69c0.95,-3.86 2.4,-9.98 2.55,-12.03 -0.15,2.05 -1.6,8.18 -2.55,12.03zm2.55 -12.03c0,-0.01 0,-0.01 0,-0.01 0,0 0,0 0,0.01zm0 -0.01c0,-0.01 0,-0.01 0,-0.01 0.02,-0.31 0.03,-0.62 0.03,-0.94 0,0.32 -0.01,0.63 -0.03,0.94 0,0 0,0 0,0.01z"/>
  <path class="fil29" d="M114 88.61c-0.2,-1.09 0.34,-4.48 0.7,-6.47 0.41,-2.39 0.88,-7.13 0.85,-9.44 -0.02,-2.31 -1.62,-6.39 -2.06,-7.67 -0.44,-1.27 0.05,-2.35 0.37,-3.63 0.32,-1.28 1.01,-4.92 1.01,-8.26 0,-2.28 -0.83,-4.01 -1.35,-4.88 2.1,-0.03 3.62,-0.11 3.62,-0.11 0,0 0,0 0,0 0.2,0.95 0.28,2.09 0.28,3.29 0,4.07 -0.93,8.93 -1.37,10.25 -0.29,0.86 -0.37,1.73 -0.37,2.42 0,0.86 0.12,1.47 0.12,1.47 0.71,1.32 1.51,4.32 1.51,7.12 0,0.32 -0.01,0.63 -0.03,0.94 0,0 0,0 0,0.01 0,0 0,0 0,0 0,0 0,0 0,0.01 0,0 0,0 0,0 -0.15,2.05 -1.6,8.17 -2.55,12.03 -0.33,1.34 -0.6,2.4 -0.73,2.92z"/>
  <polygon class="fil24" points="114.76,30.63 113.69,32.79 "/>
  <path class="fil18" d="M117.56 42.13c-0.08,0 -0.16,0 -0.25,0 -0.02,0 -0.05,-0.01 -0.07,-0.01 -0.01,-0.47 -0.01,-0.97 -0.02,-1.49 -0.03,-2.11 -0.18,-4.95 -0.37,-7.58l0.03 0.1c0,0 0.06,-0.03 0.16,-0.09l0 0.01c0.36,-0.19 0.98,-0.53 1.76,-0.98 0.09,-0.05 0.18,-0.1 0.27,-0.16 -0.93,1.92 0.16,1.3 1.96,3.5 1.24,1.53 0.54,6.7 -3.47,6.7z"/>
  <path class="fil24" d="M107.59 24.37c0,0 1.8,2.52 4.84,-0.19 0,0 0.97,0.18 2.95,1.13 0.43,0.21 0.74,0.62 0.82,1.1 0.38,2.32 0.96,9.85 1.02,14.22 0.08,5.21 -0.08,7.52 -0.08,7.52 0,0 -12.89,0.71 -15.34,-1.29l1.67 -18.39 -0.14 -1.56c-0.06,-0.78 0.43,-1.45 1.17,-1.73 0.71,-0.27 2.18,-0.81 3.09,-0.81z"/>
  <path class="fil7" d="M96.52 14.97c-2.55,-2.55 -11.1,-11.22 -12.45,-14.16l-9.1 13.24c0,0 12.78,2.99 17.68,6.01 0.64,0.4 1.45,0.39 2.08,-0.02 0.82,-0.54 1.82,-1.52 2.29,-3.21 0.18,-0.66 -0.02,-1.37 -0.5,-1.86z"/>
  <path class="fil30" d="M96.52 14.97c-0.04,-0.03 -0.07,-0.07 -0.11,-0.11l0 0c0.04,0.04 0.08,0.08 0.11,0.11z"/>
  <path class="fil31" d="M93.68 20.35c-0.36,0 -0.71,-0.09 -1.03,-0.29 -0.15,-0.1 -0.32,-0.19 -0.49,-0.29 -0.54,-0.3 -1.14,-0.6 -1.79,-0.89 -5.75,-2.58 -15.4,-4.83 -15.4,-4.83l0.01 -0.02c0.35,-0.03 0.74,-0.15 1.17,-0.35 3.5,0.9 9.88,2.63 14.41,3.86 0.45,0.13 0.91,0.18 1.37,0.18 1.94,0 3.85,-1.04 4.48,-2.86 0.04,0.04 0.07,0.08 0.11,0.11l0 0c0.37,0.37 0.57,0.86 0.57,1.36 0,0.17 -0.03,0.33 -0.07,0.5 -0.47,1.69 -1.47,2.67 -2.29,3.21 -0.32,0.21 -0.68,0.31 -1.05,0.31z"/>
  <path class="fil7" d="M81.29 8.69c-2.61,3.76 -5.81,6.06 -7.14,5.14 -1.34,-0.93 -0.3,-4.73 2.31,-8.49 2.6,-3.76 5.8,-6.06 7.14,-5.14 1.33,0.93 0.3,4.73 -2.31,8.49z"/>
  <path class="fil32" d="M74.86 14.03c-0.27,0 -0.51,-0.07 -0.71,-0.2 -0.4,-0.28 -0.59,-0.81 -0.58,-1.51 0,-1.67 1.05,-4.34 2.89,-6.98 2.21,-3.2 4.86,-5.34 6.42,-5.34 0.27,0 0.52,0.07 0.72,0.2 0.39,0.28 0.58,0.81 0.58,1.51 0,1.14 -0.49,2.73 -1.38,4.47 0,0 0,0 0,0 1.3,-2.54 1.74,-4.78 1.06,-5.72 0.09,0.77 -0.09,1.82 -0.5,3.01 -0.05,-0.32 -0.18,-0.56 -0.39,-0.71 -0.14,-0.1 -0.31,-0.15 -0.51,-0.15 -1.12,0 -3.01,1.53 -4.59,3.82 -1.31,1.89 -2.07,3.8 -2.07,4.99 0,0.5 0.13,0.88 0.42,1.08 0.14,0.1 0.31,0.14 0.51,0.14 0.04,0 0.07,0 0.11,0 -0.94,0.73 -1.81,1.18 -2.52,1.28 0.16,0.07 0.34,0.11 0.55,0.11 1.06,0 2.63,-1 4.23,-2.65 0,0 0,0 0,0 -1.04,1.07 -2.07,1.87 -2.95,2.3 -0.43,0.2 -0.82,0.32 -1.17,0.35 0,0 0,0 0,0 -0.04,0 -0.08,0 -0.12,0z"/>
  <path class="fil7" d="M84.01 7.65l-3.89 -1.98c-0.54,-0.28 -1.21,-0.08 -1.51,0.45l-0.42 0.71c-0.27,0.48 -0.17,1.08 0.25,1.44l3.51 3.02 2.06 -3.64z"/>
  <path class="fil33" d="M76.73 12.64c-0.2,0 -0.37,-0.04 -0.51,-0.14 -0.29,-0.2 -0.42,-0.58 -0.42,-1.08 0,-1.19 0.76,-3.1 2.07,-4.99 1.58,-2.29 3.47,-3.82 4.59,-3.82 0.2,0 0.37,0.05 0.51,0.15 0.21,0.15 0.34,0.39 0.39,0.71 -0.34,0.96 -0.83,2.02 -1.46,3.11l-1.78 -0.91c-0.17,-0.09 -0.35,-0.13 -0.52,-0.13 -0.4,0 -0.78,0.21 -0.99,0.58l-0.42 0.71c-0.27,0.48 -0.17,1.08 0.25,1.44l1.46 1.26c-1.02,1.29 -2.07,2.35 -3.06,3.11 -0.04,0 -0.07,0 -0.11,0z"/>
  <path class="fil32" d="M79.9 9.53l-1.46 -1.26c-0.42,-0.36 -0.52,-0.96 -0.25,-1.44l0.42 -0.71c0.21,-0.37 0.59,-0.58 0.99,-0.58 0.17,0 0.35,0.04 0.52,0.13l1.78 0.91c-0.32,0.56 -0.68,1.14 -1.08,1.71 -0.3,0.43 -0.61,0.85 -0.92,1.24z"/>
  <path class="fil34" d="M79.1 11.38c0.25,-0.27 0.51,-0.55 0.77,-0.85 0.17,-0.19 0.33,-0.39 0.49,-0.6l0.07 0.06c-0.44,0.53 -0.89,1 -1.33,1.39zm3.38 -4.51l-0.04 -0.02c0.13,-0.22 0.25,-0.45 0.36,-0.67 -0.1,0.23 -0.2,0.46 -0.32,0.69z"/>
  <path class="fil33" d="M79.1 11.38c0.25,-0.27 0.51,-0.55 0.77,-0.85 -0.26,0.3 -0.52,0.58 -0.77,0.85 0,0 0,0 0,0zm3.34 -4.53l0 0c0.13,-0.22 0.25,-0.45 0.36,-0.67 0,0 0,0 0,0 -0.11,0.22 -0.23,0.45 -0.36,0.67z"/>
  <path class="fil32" d="M80.43 9.99l0 0 -0.07 -0.06c0.32,-0.39 0.63,-0.8 0.93,-1.24 0.43,-0.62 0.81,-1.23 1.15,-1.84l0 0 0.04 0.02c-0.31,0.64 -0.7,1.3 -1.16,1.96 -0.29,0.41 -0.58,0.8 -0.89,1.16z"/>
  <path class="fil34" d="M74.87 14.03c-0.21,0 -0.39,-0.04 -0.55,-0.11 0.71,-0.1 1.58,-0.55 2.52,-1.28 0.61,-0.05 1.41,-0.51 2.26,-1.26 -1.6,1.65 -3.17,2.65 -4.23,2.65zm7.93 -7.85c0.38,-0.91 0.59,-1.72 0.59,-2.34 0,-0.13 -0.01,-0.26 -0.03,-0.37 0.41,-1.19 0.59,-2.24 0.5,-3.01 0.68,0.94 0.24,3.18 -1.06,5.72z"/>
  <path class="fil33" d="M79.87 10.53c0.17,-0.19 0.33,-0.39 0.49,-0.6l0 0c-0.16,0.21 -0.32,0.41 -0.49,0.6z"/>
  <path class="fil35" d="M76.84 12.64c0.99,-0.76 2.04,-1.82 3.06,-3.11l0.46 0.4c-0.16,0.21 -0.32,0.41 -0.49,0.6 -0.26,0.3 -0.52,0.58 -0.77,0.85 -0.85,0.75 -1.65,1.21 -2.26,1.26zm5.6 -5.79l-0.54 -0.27c0.63,-1.09 1.12,-2.15 1.46,-3.11 0.02,0.11 0.03,0.24 0.03,0.37 0,0.62 -0.21,1.43 -0.59,2.34 -0.11,0.22 -0.23,0.45 -0.36,0.67z"/>
  <path class="fil34" d="M80.36 9.93l0 0 -0.46 -0.4c0.31,-0.39 0.62,-0.81 0.92,-1.24 0.4,-0.57 0.76,-1.15 1.08,-1.71l0.54 0.27c-0.34,0.61 -0.72,1.22 -1.15,1.84 -0.3,0.44 -0.61,0.85 -0.93,1.24z"/>
  <path class="fil8" d="M128.49 16.19c0,0 1.68,-1.66 2.04,-2.99 0.35,-1.33 1.62,-5.76 2.3,-5.7 0.67,0.06 0.55,1.99 0.36,3.33 -0.18,1.35 0.39,2.94 -0.31,3.56 -0.7,0.61 -2.2,3.77 -2.2,3.77l-2.19 -1.97z"/>
  <path class="fil24" d="M115.15 27.43c0,0 -3.13,-3.37 -2.56,-3.25 3.75,0.83 7.94,-0.38 10.54,-2.37 2.38,-1.82 6.22,-7.36 6.22,-7.36l3.05 1.86c0,0 -2.5,6.2 -4.3,8.54 -3.28,4.23 -11.22,8.3 -11.22,8.3l-1.73 -5.72z"/>
  <path class="fil18" d="M117.04 33.07l0 -0.01c0.28,-0.14 0.92,-0.48 1.76,-0.97 -0.78,0.45 -1.4,0.79 -1.76,0.98z"/>
  <path class="fil36" d="M128.08 24.87c0,0 0,0 0,0 0,0 0,0 0,0z"/>
  <path class="fil36" d="M128.09 24.86c0,0 0,-0.01 0.01,-0.01 0.76,-0.99 1.65,-2.68 2.42,-4.29l0 0c-0.77,1.61 -1.66,3.3 -2.42,4.29 -0.01,0 -0.01,0.01 -0.01,0.01z"/>
  <path class="fil26" d="M117.04 33.06l-0.56 -3.18c0,0 5.85,-1.82 9.5,-4.69 2.61,-2.05 6.42,-8.88 6.42,-8.88 0,0 -0.83,2.05 -1.88,4.25 -0.77,1.61 -1.66,3.3 -2.42,4.29 -0.01,0 -0.01,0.01 -0.01,0.01 -0.01,0 -0.01,0.01 -0.01,0.01 0,0 0,0 0,0 -2.19,2.81 -6.64,5.68 -9.28,7.22 -0.84,0.49 -1.48,0.83 -1.76,0.97z"/>
  <path class="fil14" d="M112.47 19.59c-0.11,0 -0.22,-0.02 -0.33,-0.05l-0.09 -2.35c0.05,-0.19 0.39,-0.4 0.76,-0.4 0.3,0 0.61,0.14 0.8,0.56 0.09,0.19 0.13,0.41 0.13,0.63 0,0.76 -0.47,1.57 -1.22,1.61 -0.02,0 -0.03,0 -0.05,0z"/>
  <path class="fil9" d="M113.91 88.96c0,0 1.06,3.69 0.32,4.43 -0.74,0.74 -9.98,1.23 -10.32,0.64 -0.35,-0.59 -0.1,-1.28 2.5,-2.31 2.61,-1.03 4.18,-2.76 4.18,-2.76l3.32 0z"/>
  <path class="fil37" d="M106.27 94.29c0,0 0,0 0,0 0,0 0,0 0,0l0 0zm0.4 0c2.86,-0.03 6.98,-0.41 7.54,-0.88 -0.56,0.47 -4.68,0.85 -7.54,0.88zm-2.76 -0.25c0,0 0,0 0,0 0,0 0,0 0,0zm0 -0.01c0,0 0,0 0,0 0,0 0,0 0,0zm10.3 -0.63c0.01,0 0.01,-0.01 0.02,-0.01l0 0c-0.01,0 -0.01,0.01 -0.02,0.01zm0.02 -0.01c0,0 0,0 0,0 0,0 0,0 0,0zm0 0c0,-0.01 0,-0.01 0,-0.01 0,0 0,0 0,0.01z"/>
  <path class="fil38" d="M114.41 93.06l0 0c0,-0.02 0.01,-0.03 0.01,-0.05l0 0c0,0.02 -0.01,0.03 -0.01,0.05z"/>
  <path class="fil38" d="M114.42 93.01c0.05,-0.19 0.07,-0.42 0.07,-0.68l0 0c0,0.26 -0.02,0.49 -0.07,0.68l0 0z"/>
  <path class="fil39" d="M114.49 92.33c0,-0.17 -0.01,-0.36 -0.03,-0.55 0.02,0.19 0.03,0.38 0.03,0.55l0 0z"/>
  <path class="fil37" d="M114.23 93.38c0.08,-0.07 0.14,-0.18 0.18,-0.32l0 0c-0.04,0.14 -0.1,0.25 -0.18,0.32z"/>
  <path class="fil39" d="M114.46 91.78c0,0 0,0 0,0 0,0 0,0 0,0zm0 -0.01c0,0 0,0 0,0 0,0 0,0 0,0z"/>
  <path class="fil18" d="M106.27 94.29c0,0 0,0 0,0 -1.28,0 -2.23,-0.08 -2.36,-0.25 0,0 0,0 0,0 0,-0.01 0,-0.01 0,-0.01 0,0 0,0 0,0 0,0 0,0 0,0l0 0 -0.04 -0.08c0.39,0.03 0.86,0.05 1.38,0.05 2.6,0 6.45,-0.41 7.79,-1.4 0.91,-0.67 1.13,-1.75 1.13,-2.61 0.11,0.53 0.24,1.18 0.29,1.78 0,0 0,0 0,0 0,0.01 0,0.01 0,0.01 0,0 0,0 0,0 0,0 0,0 0,0 0.02,0.19 0.03,0.38 0.03,0.55 0,0.26 -0.02,0.49 -0.07,0.68 0,0.02 -0.01,0.03 -0.01,0.05 -0.04,0.14 -0.1,0.25 -0.18,0.32l0 0c0,0 0,0 0,0.01 0,0 0,0 0,0 0,0 0,0 0,0 0,0 0,0 0,0l0 0c-0.01,0 -0.01,0.01 -0.02,0.01 0,0 0,0 0,0.01 -0.56,0.47 -4.68,0.85 -7.54,0.88 -0.13,0 -0.27,0 -0.4,0z"/>
  <path class="fil5" d="M55.81 95.29c-23.65,0 -42.83,-0.78 -42.83,-1.74 0,-0.36 2.67,-0.7 7.25,-0.97 0.12,-0.01 0.25,-0.02 0.37,-0.03l0 0.12 -0.11 1.51 5.23 0 0.06 -0.87 0.07 -1.01c2.87,-0.11 6.13,-0.21 9.69,-0.29 6.04,-0.13 12.94,-0.21 20.27,-0.21 10.94,0 20.91,0.17 28.48,0.45l0.02 0.2 0.06 0.86 0.05 0.87 5.24 0 -0.06 -0.87 -0.06 -0.84c4.56,0.24 7.65,0.52 8.7,0.84 0.26,0.08 0.4,0.15 0.4,0.24 0,0.01 0,0.02 -0.01,0.03 -0.11,0.04 -0.17,0.08 -0.17,0.13 -2,0.88 -20.33,1.58 -42.65,1.58z"/>
  <path class="fil40" d="M98.46 93.71c0,-0.05 0.06,-0.09 0.17,-0.13 -0.02,0.04 -0.08,0.08 -0.17,0.13z"/>
  <polygon class="fil9" points="20.49,94.18 25.72,94.18 28.83,48.48 23.59,48.48 "/>
  <polygon class="fil41" points="20.69,91.34 20.75,90.42 20.75,90.42 20.69,91.34 "/>
  <polygon class="fil38" points="20.6,92.55 20.69,91.34 20.69,91.34 20.6,92.55 "/>
  <path class="fil37" d="M20.49 94.18l0.11 -1.51c0,0 0,0 0,0l-0.11 1.51z"/>
  <path class="fil37" d="M20.6 92.67c0,0 0,0 0,0l0 -0.12 0 0 0 0.12z"/>
  <path class="fil18" d="M25.72 94.18l-5.23 0 0.11 -1.51 0 -0.12 0.09 -1.21 0.06 -0.92c2.42,-0.49 4.29,-2.55 4.47,-5.11l0 -0.1 1.11 0 0.07 -1.11 -1.1 0 0 -0.02 1.11 0 -0.22 3.25 -0.34 4.97 -0.07 1.01 -0.06 0.87zm1.69 -24.9l-1.11 0 0.12 -1.67 1.11 0 -0.12 1.67zm1.2 -17.58l-1.11 0 0.22 -3.22 1.11 0 -0.22 3.22z"/>
  <polygon class="fil9" points="89.66,94.18 84.42,94.18 81.32,48.48 86.55,48.48 "/>
  <path class="fil42" d="M89.66 94.18l-5.24 0 -0.34 -5.11c1.67,-0.6 2.91,-2.08 3.17,-3.86l1.8 0 0.61 8.97zm-0.69 -10.08l-1.68 0 0 -0.02 1.68 0 0 0.02zm-1.01 -14.82l-1.67 0 -0.11 -1.67 1.67 0 0 -0.09 0.11 1.76zm-1.19 -17.58l-1.67 0 -0.22 -3.22 1.67 0 0.22 3.22z"/>
  <polygon class="fil7" points="90.13,66.51 18.11,66.51 18.97,51.7 89.44,51.7 "/>
  <polygon class="fil9" points="89.76,58.49 84.88,51.7 77.1,51.7 87.75,66.51 90.13,66.51 90.13,66.51 "/>
  <polygon class="fil9" points="82.12,66.51 71.47,51.7 63.7,51.7 74.34,66.51 "/>
  <polygon class="fil9" points="69.02,66.51 58.37,51.7 50.6,51.7 61.25,66.51 "/>
  <polygon class="fil9" points="55.93,66.51 45.28,51.7 37.5,51.7 48.15,66.51 "/>
  <polygon class="fil9" points="42.83,66.51 32.18,51.7 24.41,51.7 35.06,66.51 "/>
  <polygon class="fil9" points="29.74,66.51 19.09,51.7 18.97,51.7 18.4,61.56 21.96,66.51 "/>
  <polygon class="fil7" points="90.99,84.08 17.25,84.08 18.11,69.28 90.13,69.28 "/>
  <polygon class="fil9" points="89.74,69.28 90.16,69.87 90.13,69.28 "/>
  <polygon class="fil9" points="90.66,78.38 84.11,69.28 76.34,69.28 86.98,84.08 90.99,84.08 90.99,84.08 "/>
  <polygon class="fil9" points="81.66,84.08 71.01,69.28 63.24,69.28 73.89,84.08 "/>
  <polygon class="fil9" points="68.57,84.08 57.92,69.28 50.14,69.28 60.79,84.08 "/>
  <polygon class="fil9" points="55.47,84.08 44.82,69.28 37.05,69.28 47.7,84.08 "/>
  <polygon class="fil9" points="42.38,84.08 31.73,69.28 23.95,69.28 34.6,84.08 "/>
  <polygon class="fil9" points="29.28,84.08 18.63,69.28 18.11,69.28 17.57,78.61 21.51,84.08 "/>
  <path class="fil43" d="M82.62 67.61l0 0 -0.07 -1.1 0.07 1.1zm5.18 -1.1l-0.02 0 0.07 1.01 -0.05 -1.01z"/>
  <polygon class="fil42" points="86.18,67.61 82.62,67.61 82.55,66.51 86.1,66.51 "/>
  <polygon class="fil44" points="87.85,67.61 86.18,67.61 86.1,66.51 87.78,66.51 87.85,67.52 "/>
  <polygon class="fil43" points="27.54,67.61 27.53,67.61 27.6,66.51 27.6,66.51 "/>
  <polygon class="fil42" points="26.42,67.61 22.32,67.61 22.4,66.51 26.49,66.51 "/>
  <polygon class="fil22" points="27.53,67.61 26.42,67.61 26.49,66.51 27.6,66.51 "/>
  <polygon class="fil43" points="89.07,85.21 89.05,85.21 88.97,84.1 89.02,84.1 "/>
  <path class="fil42" d="M87.25 85.21l-3.41 0 -0.07 -1.11 3.52 0 0.01 0.04c0.02,0.36 0.01,0.72 -0.05,1.07z"/>
  <path class="fil44" d="M89.05 85.21l-1.8 0c0.06,-0.35 0.07,-0.71 0.05,-1.07l-0.01 -0.04 1.68 0 0.08 1.11z"/>
  <polygon class="fil42" points="25.22,85.21 21.11,85.21 21.2,84.1 25.3,84.1 "/>
  <polygon class="fil22" points="26.33,85.21 25.22,85.21 25.3,84.1 26.4,84.1 "/>
  <polygon class="fil7" points="35.17,76.65 74.63,76.65 74.63,58 35.17,58 "/>
  <polygon class="fil45" points="74.63,66.51 75.32,66.51 75.32,58.52 74.63,58.52 "/>
  <polygon class="fil46" points="74.63,69.28 75.32,69.28 75.32,66.51 74.63,66.51 "/>
  <path class="fil47" d="M68.92 77.17l-5.32 0 -0.38 -0.52 5.32 0 0.38 0.52zm-13.1 0l-5.32 0 -0.37 -0.52 5.32 0 0.37 0.52zm-13.09 0l-5.33 0 -0.37 -0.52 5.32 0 0.38 0.52zm32.59 -1.91l-0.69 -0.95 0 -5.03 0.69 0 0 5.98z"/>
  <polygon class="fil45" points="75.32,77.17 68.92,77.17 68.54,76.65 74.63,76.65 74.63,74.31 75.32,75.26 "/>
  <polygon class="fil45" points="63.6,77.17 55.82,77.17 55.45,76.65 63.22,76.65 "/>
  <polygon class="fil45" points="50.5,77.17 42.73,77.17 42.35,76.65 50.13,76.65 "/>
  <polygon class="fil45" points="37.4,77.17 35.86,77.17 35.86,76.65 37.03,76.65 "/>
  <path class="fil23" d="M74.63 76.65l-39.46 0 0 -2.24 20.81 0c9.06,0 16.41,-7.34 16.41,-16.41l2.24 0 0 18.65z"/>
  <path class="fil9" d="M43.64 70.38c2.19,0 3.8,-1.48 3.8,-3.52 0,-2.04 -1.61,-3.53 -3.8,-3.53 -2.2,0 -3.8,1.49 -3.8,3.53 0,2.04 1.6,3.52 3.8,3.52zm0 -1.84c-0.84,0 -1.51,-0.63 -1.51,-1.68 0,-1.05 0.67,-1.69 1.51,-1.69 0.84,0 1.51,0.64 1.51,1.69 0,1.05 -0.67,1.68 -1.51,1.68zm8.16 1.84c2.2,0 3.8,-1.48 3.8,-3.52 0,-2.04 -1.6,-3.53 -3.8,-3.53 -2.19,0 -3.8,1.49 -3.8,3.53 0,2.04 1.61,3.52 3.8,3.52zm0 -1.84c-0.84,0 -1.51,-0.63 -1.51,-1.68 0,-1.05 0.67,-1.69 1.51,-1.69 0.84,0 1.51,0.64 1.51,1.69 0,1.05 -0.67,1.68 -1.51,1.68zm7.88 -5.05l-3.25 0 0 6.74 2.27 0 0 -1.66 0.98 0c1.87,0 3.07,-0.98 3.07,-2.54 0,-1.56 -1.2,-2.54 -3.07,-2.54zm-0.15 3.33l-0.83 0 0 -1.58 0.83 0c0.63,0 0.93,0.3 0.93,0.79 0,0.49 -0.3,0.79 -0.93,0.79zm6.57 3.56c2.09,0 3.14,-1.04 3.14,-2.27 0,-2.49 -3.73,-1.81 -3.73,-2.62 0,-0.23 0.21,-0.42 0.88,-0.42 0.58,0 1.21,0.16 1.87,0.5l0.69 -1.65c-0.71,-0.39 -1.64,-0.59 -2.54,-0.59 -2.09,0 -3.14,1.02 -3.14,2.27 0,2.52 3.72,1.83 3.72,2.68 0,0.23 -0.23,0.37 -0.87,0.37 -0.74,0 -1.59,-0.24 -2.23,-0.62l-0.73 1.66c0.68,0.41 1.81,0.69 2.94,0.69z"/>
 </g>
</svg>
